<svg width="0" height="0" xmlns="http://www.w3.org/2000/svg">
  <symbol id="logo" viewBox="0 0 32 32" >
    <path fill-rule="evenodd" clip-rule="evenodd" d="M14.9709 0V4.77909L31.3822 14.291V9.48178L14.9709 0Z" fill="#4964D8"/>
    <path fill-rule="evenodd" clip-rule="evenodd" d="M11.301 2.46295L7.18317 4.61425V9.39334L27.5777 20.7248V25.3853L31.3962 23.0631V18.5313L11.3091 7.14554L11.301 2.46295Z" fill="#4964D8"/>
    <path fill-rule="evenodd" clip-rule="evenodd" d="M0 8.79416L3.87883 6.70519V11.05L24.1387 22.8459V27.3697L20.0048 29.6114V25.3993L0 13.722V8.79416Z" fill="#4964D8"/>
    <path fill-rule="evenodd" clip-rule="evenodd" d="M0 17.7391V22.3674L16.4253 32V27.3697L0 17.7391Z" fill="#4964D8"/>
  </symbol>
  <symbol viewBox="0 0 26 31" id="fuel" >
    <path fill-rule="evenodd" clip-rule="evenodd" d="M14.3602 5.47059H22.2912C24.3362 5.47059 26 7.10423 26 9.11224V31H7.42857V12.287L7.46318 12.2634L5.5479 9.12914L7.23041 8.07781L5.58071 5.08728C4.47014 3.07417 2.33177 1.82353 0 1.82353V0C3.01402 0 5.77819 1.61656 7.2137 4.21874L8.80112 7.09633L10.4826 6.04567L12.2262 8.61362L14.3602 5.47059ZM20.7868 7.29412H15.3541L14.116 9.11765H18.9117C19.4938 9.11765 20.0175 8.80023 20.2785 8.28934L20.7868 7.29412ZM8.07114 9.714L9.94593 8.54257L10.8905 9.93368L8.9934 11.2233L8.07114 9.714ZM9.28571 29.1765H24.1429H24.1429V9.11224C24.1429 8.29189 23.5865 7.59694 22.8249 7.37144L21.9386 9.10677C21.3607 10.2383 20.2008 10.9412 18.9117 10.9412H12.671L9.28571 13.2424V29.1765Z" fill="#4964D8"/>
    <path fill-rule="evenodd" clip-rule="evenodd" d="M20.6479 13L21.9999 14.2342L19.8164 16.7569V22.2431L22 24.7657L20.648 25.9999L18.5058 23.5251H14.4942L12.3521 26L11.0001 24.7658L13.1836 22.2431V16.7569L11 14.2343L12.352 13.0001L14.4942 15.4749H18.5058L20.6479 13ZM14.9925 21.6674H18.0075V17.3326H14.9925V21.6674Z" fill="#4964D8"/>
  </symbol>
  <symbol viewBox="0 0 16 20" id="marker-blue"  >
    <path fill-rule="evenodd" clip-rule="evenodd" d="M8 0C4.33333 0 0.5 2.83333 0.5 7.5C0.5 11.9167 7.16667 18.6667 7.41667 18.9167C7.58333 19.0833 7.75 19.1667 8 19.1667C8.25 19.1667 8.41667 19.0833 8.58333 18.9167C8.83333 18.6667 15.5 11.9167 15.5 7.5C15.5 2.83333 11.6667 0 8 0ZM8 10C6.58333 10 5.5 8.91667 5.5 7.5C5.5 6.08333 6.58333 5 8 5C9.41667 5 10.5 6.08333 10.5 7.5C10.5 8.91667 9.41667 10 8 10Z" fill="#4964D8"/>
  </symbol>
  <symbol viewBox="0 0 16 20" id="marker-yellow"  >
    <path fill-rule="evenodd" clip-rule="evenodd" d="M8 0C4.33333 0 0.5 2.83333 0.5 7.5C0.5 11.9167 7.16667 18.6667 7.41667 18.9167C7.58333 19.0833 7.75 19.1667 8 19.1667C8.25 19.1667 8.41667 19.0833 8.58333 18.9167C8.83333 18.6667 15.5 11.9167 15.5 7.5C15.5 2.83333 11.6667 0 8 0ZM8 10C6.58333 10 5.5 8.91667 5.5 7.5C5.5 6.08333 6.58333 5 8 5C9.41667 5 10.5 6.08333 10.5 7.5C10.5 8.91667 9.41667 10 8 10Z" fill="#FFAF2A"/>
  </symbol>
  <symbol viewBox="0 0 16 20" id="weight"  >
    <path fill-rule="evenodd" clip-rule="evenodd" d="M14.6665 0.833344H1.33317C0.964981 0.833344 0.666504 1.20644 0.666504 1.66668V18.3333C0.666504 18.7936 0.964981 19.1667 1.33317 19.1667H14.6665C15.0347 19.1667 15.3332 18.7936 15.3332 18.3333V1.66668C15.3332 1.20644 15.0347 0.833344 14.6665 0.833344ZM3.33317 10C3.33317 6.77835 5.42251 4.16668 7.99984 4.16668C10.5772 4.16668 12.6665 6.77835 12.6665 10H3.33317Z" fill="#4964D8"/>
    <path fill-rule="evenodd" clip-rule="evenodd" d="M9.029 9.16668C9.04167 7.85251 8.967 6.01251 8.967 6.01251C8.967 6.01251 7.721 8.10751 7.229 9.16668H9.029Z" fill="#4964D8"/>
  </symbol>
  <symbol viewBox="0 0 19 33" id="dollar" fill="none"  >
   <path d="M9.49996 1V32" stroke="#4964D8" stroke-width="2" stroke-linecap="round" stroke-linejoin="round"/>
   <path d="M15.9583 6.63635H6.27083C3.77405 6.63635 1.75 8.8444 1.75 11.5682C1.75 14.2919 3.77405 16.5 6.27083 16.5H12.7292C15.226 16.5 17.25 18.708 17.25 21.4318C17.25 24.1556 15.226 26.3636 12.7292 26.3636H1.75" stroke="#4964D8" stroke-width="2" stroke-linecap="round" stroke-linejoin="round"/>
  </symbol>
  <symbol id="calendar" viewBox="0 0 16 16">
    <path fill-rule="evenodd" clip-rule="evenodd" d="M12.6667 2.66666V1.33332C12.6667 0.965133 12.3682 0.666656 12 0.666656C11.6319 0.666656 11.3334 0.965133 11.3334 1.33332V2.66666H12.6667Z" fill="#A8A8A8"/>
    <path fill-rule="evenodd" clip-rule="evenodd" d="M4.66671 2.66666V1.33332C4.66671 0.965133 4.36823 0.666656 4.00004 0.666656C3.63185 0.666656 3.33337 0.965133 3.33337 1.33332V2.66666H4.66671Z" fill="#A8A8A8"/>
    <path fill-rule="evenodd" clip-rule="evenodd" d="M14 16H2C0.895431 16 0 15.1045 0 14V5.33331C0 4.22874 0.895431 3.33331 2 3.33331H14C15.1046 3.33331 16 4.22874 16 5.33331V14C16 15.1045 15.1046 16 14 16ZM14.6667 6.66665H1.33333V14C1.33333 14.3682 1.63181 14.6666 2 14.6666H14C14.3682 14.6666 14.6667 14.3682 14.6667 14V6.66665Z" fill="#A8A8A8"/>
    <rect x="2.66663" y="8" width="2.66667" height="2" fill="#A8A8A8"/>
    <rect x="6.66663" y="8" width="2.66667" height="2" fill="#A8A8A8"/>
    <rect x="2.66663" y="11.3333" width="2.66667" height="2" fill="#A8A8A8"/>
    <rect x="6.66663" y="11.3333" width="2.66667" height="2" fill="#A8A8A8"/>
    <rect x="10.6666" y="8" width="2.66667" height="2" fill="#A8A8A8"/>
  </symbol>
  <symbol id="tag" viewBox="0 0 20 20">
    <path fill-rule="evenodd" clip-rule="evenodd" d="M18.9227 10.2442L9.75599 1.07749C9.60016 0.921662 9.38766 0.833328 9.16683 0.833328H1.66683C1.20683 0.833328 0.833496 1.20666 0.833496 1.66666V9.16666C0.833496 9.38749 0.920996 9.59999 1.07766 9.75583L10.2443 18.9225C10.4068 19.0858 10.6202 19.1667 10.8335 19.1667C11.0468 19.1667 11.2602 19.085 11.4227 18.9225L18.9227 11.4225C19.2485 11.0975 19.2485 10.57 18.9227 10.2442ZM5.8335 7.5C4.91266 7.5 4.16683 6.75416 4.16683 5.83333C4.16683 4.91249 4.91266 4.16666 5.8335 4.16666C6.75433 4.16666 7.50016 4.91249 7.50016 5.83333C7.50016 6.75416 6.75433 7.5 5.8335 7.5Z" fill="#A8A8A8"/>
  </symbol>
</svg>




