<svg width="0" height="0" xmlns="http://www.w3.org/2000/svg">
  <symbol id="logo" viewBox="0 0 32 32" >
    <path fill-rule="evenodd" clip-rule="evenodd" d="M14.9709 0V4.77909L31.3822 14.291V9.48178L14.9709 0Z" fill="#4964D8"/>
    <path fill-rule="evenodd" clip-rule="evenodd" d="M11.301 2.46295L7.18317 4.61425V9.39334L27.5777 20.7248V25.3853L31.3962 23.0631V18.5313L11.3091 7.14554L11.301 2.46295Z" fill="#4964D8"/>
    <path fill-rule="evenodd" clip-rule="evenodd" d="M0 8.79416L3.87883 6.70519V11.05L24.1387 22.8459V27.3697L20.0048 29.6114V25.3993L0 13.722V8.79416Z" fill="#4964D8"/>
    <path fill-rule="evenodd" clip-rule="evenodd" d="M0 17.7391V22.3674L16.4253 32V27.3697L0 17.7391Z" fill="#4964D8"/>
  </symbol>
  <symbol viewBox="0 0 26 31" id="fuel" >
    <path fill-rule="evenodd" clip-rule="evenodd" d="M14.3602 5.47059H22.2912C24.3362 5.47059 26 7.10423 26 9.11224V31H7.42857V12.287L7.46318 12.2634L5.5479 9.12914L7.23041 8.07781L5.58071 5.08728C4.47014 3.07417 2.33177 1.82353 0 1.82353V0C3.01402 0 5.77819 1.61656 7.2137 4.21874L8.80112 7.09633L10.4826 6.04567L12.2262 8.61362L14.3602 5.47059ZM20.7868 7.29412H15.3541L14.116 9.11765H18.9117C19.4938 9.11765 20.0175 8.80023 20.2785 8.28934L20.7868 7.29412ZM8.07114 9.714L9.94593 8.54257L10.8905 9.93368L8.9934 11.2233L8.07114 9.714ZM9.28571 29.1765H24.1429H24.1429V9.11224C24.1429 8.29189 23.5865 7.59694 22.8249 7.37144L21.9386 9.10677C21.3607 10.2383 20.2008 10.9412 18.9117 10.9412H12.671L9.28571 13.2424V29.1765Z" fill="#4964D8"/>
    <path fill-rule="evenodd" clip-rule="evenodd" d="M20.6479 13L21.9999 14.2342L19.8164 16.7569V22.2431L22 24.7657L20.648 25.9999L18.5058 23.5251H14.4942L12.3521 26L11.0001 24.7658L13.1836 22.2431V16.7569L11 14.2343L12.352 13.0001L14.4942 15.4749H18.5058L20.6479 13ZM14.9925 21.6674H18.0075V17.3326H14.9925V21.6674Z" fill="#4964D8"/>
  </symbol>
  <symbol viewBox="0 0 26 31" id="fuel-green" >
    <path fill-rule="evenodd" clip-rule="evenodd" d="M14.3602 5.47059H22.2912C24.3362 5.47059 26 7.10423 26 9.11224V31H7.42857V12.287L7.46318 12.2634L5.5479 9.12914L7.23041 8.07781L5.58071 5.08728C4.47014 3.07417 2.33177 1.82353 0 1.82353V0C3.01402 0 5.77819 1.61656 7.2137 4.21874L8.80112 7.09633L10.4826 6.04567L12.2262 8.61362L14.3602 5.47059ZM20.7868 7.29412H15.3541L14.116 9.11765H18.9117C19.4938 9.11765 20.0175 8.80023 20.2785 8.28934L20.7868 7.29412ZM8.07114 9.714L9.94593 8.54257L10.8905 9.93368L8.9934 11.2233L8.07114 9.714ZM9.28571 29.1765H24.1429H24.1429V9.11224C24.1429 8.29189 23.5865 7.59694 22.8249 7.37144L21.9386 9.10677C21.3607 10.2383 20.2008 10.9412 18.9117 10.9412H12.671L9.28571 13.2424V29.1765Z" fill="#2AC78A"/>
    <path fill-rule="evenodd" clip-rule="evenodd" d="M20.6479 13L21.9999 14.2342L19.8164 16.7569V22.2431L22 24.7657L20.648 25.9999L18.5058 23.5251H14.4942L12.3521 26L11.0001 24.7658L13.1836 22.2431V16.7569L11 14.2343L12.352 13.0001L14.4942 15.4749H18.5058L20.6479 13ZM14.9925 21.6674H18.0075V17.3326H14.9925V21.6674Z" fill="#2AC78A"/>
  </symbol>
  <symbol viewBox="0 0 26 31" id="fuel-red" >
    <path fill-rule="evenodd" clip-rule="evenodd" d="M14.3602 5.47059H22.2912C24.3362 5.47059 26 7.10423 26 9.11224V31H7.42857V12.287L7.46318 12.2634L5.5479 9.12914L7.23041 8.07781L5.58071 5.08728C4.47014 3.07417 2.33177 1.82353 0 1.82353V0C3.01402 0 5.77819 1.61656 7.2137 4.21874L8.80112 7.09633L10.4826 6.04567L12.2262 8.61362L14.3602 5.47059ZM20.7868 7.29412H15.3541L14.116 9.11765H18.9117C19.4938 9.11765 20.0175 8.80023 20.2785 8.28934L20.7868 7.29412ZM8.07114 9.714L9.94593 8.54257L10.8905 9.93368L8.9934 11.2233L8.07114 9.714ZM9.28571 29.1765H24.1429H24.1429V9.11224C24.1429 8.29189 23.5865 7.59694 22.8249 7.37144L21.9386 9.10677C21.3607 10.2383 20.2008 10.9412 18.9117 10.9412H12.671L9.28571 13.2424V29.1765Z" fill="#D84949"/>
    <path fill-rule="evenodd" clip-rule="evenodd" d="M20.6479 13L21.9999 14.2342L19.8164 16.7569V22.2431L22 24.7657L20.648 25.9999L18.5058 23.5251H14.4942L12.3521 26L11.0001 24.7658L13.1836 22.2431V16.7569L11 14.2343L12.352 13.0001L14.4942 15.4749H18.5058L20.6479 13ZM14.9925 21.6674H18.0075V17.3326H14.9925V21.6674Z" fill="#D84949"/>
  </symbol>
  <symbol viewBox="0 0 16 20" id="marker-blue"  >
    <path fill-rule="evenodd" clip-rule="evenodd" d="M8 0C4.33333 0 0.5 2.83333 0.5 7.5C0.5 11.9167 7.16667 18.6667 7.41667 18.9167C7.58333 19.0833 7.75 19.1667 8 19.1667C8.25 19.1667 8.41667 19.0833 8.58333 18.9167C8.83333 18.6667 15.5 11.9167 15.5 7.5C15.5 2.83333 11.6667 0 8 0ZM8 10C6.58333 10 5.5 8.91667 5.5 7.5C5.5 6.08333 6.58333 5 8 5C9.41667 5 10.5 6.08333 10.5 7.5C10.5 8.91667 9.41667 10 8 10Z" fill="#4964D8"/>
  </symbol>
  <symbol viewBox="0 0 16 20" id="marker-yellow"  >
    <path fill-rule="evenodd" clip-rule="evenodd" d="M8 0C4.33333 0 0.5 2.83333 0.5 7.5C0.5 11.9167 7.16667 18.6667 7.41667 18.9167C7.58333 19.0833 7.75 19.1667 8 19.1667C8.25 19.1667 8.41667 19.0833 8.58333 18.9167C8.83333 18.6667 15.5 11.9167 15.5 7.5C15.5 2.83333 11.6667 0 8 0ZM8 10C6.58333 10 5.5 8.91667 5.5 7.5C5.5 6.08333 6.58333 5 8 5C9.41667 5 10.5 6.08333 10.5 7.5C10.5 8.91667 9.41667 10 8 10Z" fill="#FFAF2A"/>
  </symbol>
  <symbol id="marker-gray" viewBox="0 0 10 12" fill="none">
   <path d="M5 6.5C5.82843 6.5 6.5 5.82843 6.5 5C6.5 4.17157 5.82843 3.5 5 3.5C4.17157 3.5 3.5 4.17157 3.5 5C3.5 5.82843 4.17157 6.5 5 6.5Z" 
        stroke="#192A3E" 
        stroke-linecap="round" 
        stroke-linejoin="round"/>
    <path d="M5 11C7 9 9 7.20914 9 5C9 2.79086 7.20914 1 5 1C2.79086 1 1 2.79086 1 5C1 7.20914 3 9 5 11Z" 
        stroke="#192A3E" 
        stroke-linecap="round" 
        stroke-linejoin="round"/>
</symbol>
  <symbol viewBox="0 0 16 20" id="weight"  >
    <path fill-rule="evenodd" clip-rule="evenodd" d="M14.6665 0.833344H1.33317C0.964981 0.833344 0.666504 1.20644 0.666504 1.66668V18.3333C0.666504 18.7936 0.964981 19.1667 1.33317 19.1667H14.6665C15.0347 19.1667 15.3332 18.7936 15.3332 18.3333V1.66668C15.3332 1.20644 15.0347 0.833344 14.6665 0.833344ZM3.33317 10C3.33317 6.77835 5.42251 4.16668 7.99984 4.16668C10.5772 4.16668 12.6665 6.77835 12.6665 10H3.33317Z" fill="#4964D8"/>
    <path fill-rule="evenodd" clip-rule="evenodd" d="M9.029 9.16668C9.04167 7.85251 8.967 6.01251 8.967 6.01251C8.967 6.01251 7.721 8.10751 7.229 9.16668H9.029Z" fill="#4964D8"/>
  </symbol>
  <symbol viewBox="0 0 19 33" id="dollar" fill="none"  >
   <path d="M9.49996 1V32" stroke="#4964D8" stroke-width="2" stroke-linecap="round" stroke-linejoin="round"/>                                                   
   <path d="M15.9583 6.63635H6.27083C3.77405 6.63635 1.75 8.8444 1.75 11.5682C1.75 14.2919 3.77405 16.5 6.27083 16.5H12.7292C15.226 16.5 17.25 18.708 17.25 21.4318C17.25 24.1556 15.226 26.3636 12.7292 26.3636H1.75" stroke="#4964D8" stroke-width="2" stroke-linecap="round" stroke-linejoin="round"/>                       
  </symbol>
  <symbol viewBox="0 0 19 33" id="dollar-green" fill="none"  >
   <path d="M9.49996 1V32" stroke="#22C55E" stroke-width="2" stroke-linecap="round" stroke-linejoin="round"/>                                                   
   <path d="M15.9583 6.63635H6.27083C3.77405 6.63635 1.75 8.8444 1.75 11.5682C1.75 14.2919 3.77405 16.5 6.27083 16.5H12.7292C15.226 16.5 17.25 18.708 17.25 21.4318C17.25 24.1556 15.226 26.3636 12.7292 26.3636H1.75" stroke="#22C55E" stroke-width="2" stroke-linecap="round" stroke-linejoin="round"/>                       
  </symbol>
  <symbol id="calendar" viewBox="0 0 16 16">
    <path fill-rule="evenodd" clip-rule="evenodd" d="M12.6667 2.66666V1.33332C12.6667 0.965133 12.3682 0.666656 12 0.666656C11.6319 0.666656 11.3334 0.965133 11.3334 1.33332V2.66666H12.6667Z" fill="#A8A8A8"/>
    <path fill-rule="evenodd" clip-rule="evenodd" d="M4.66671 2.66666V1.33332C4.66671 0.965133 4.36823 0.666656 4.00004 0.666656C3.63185 0.666656 3.33337 0.965133 3.33337 1.33332V2.66666H4.66671Z" fill="#A8A8A8"/>
    <path fill-rule="evenodd" clip-rule="evenodd" d="M14 16H2C0.895431 16 0 15.1045 0 14V5.33331C0 4.22874 0.895431 3.33331 2 3.33331H14C15.1046 3.33331 16 4.22874 16 5.33331V14C16 15.1045 15.1046 16 14 16ZM14.6667 6.66665H1.33333V14C1.33333 14.3682 1.63181 14.6666 2 14.6666H14C14.3682 14.6666 14.6667 14.3682 14.6667 14V6.66665Z" fill="#A8A8A8"/>
    <rect x="2.66663" y="8" width="2.66667" height="2" fill="#A8A8A8"/>
    <rect x="6.66663" y="8" width="2.66667" height="2" fill="#A8A8A8"/>
    <rect x="2.66663" y="11.3333" width="2.66667" height="2" fill="#A8A8A8"/>
    <rect x="6.66663" y="11.3333" width="2.66667" height="2" fill="#A8A8A8"/>
    <rect x="10.6666" y="8" width="2.66667" height="2" fill="#A8A8A8"/>
  </symbol>
  <symbol id="tag" viewBox="0 0 20 20">
    <path fill-rule="evenodd" clip-rule="evenodd" d="M18.9227 10.2442L9.75599 1.07749C9.60016 0.921662 9.38766 0.833328 9.16683 0.833328H1.66683C1.20683 0.833328 0.833496 1.20666 0.833496 1.66666V9.16666C0.833496 9.38749 0.920996 9.59999 1.07766 9.75583L10.2443 18.9225C10.4068 19.0858 10.6202 19.1667 10.8335 19.1667C11.0468 19.1667 11.2602 19.085 11.4227 18.9225L18.9227 11.4225C19.2485 11.0975 19.2485 10.57 18.9227 10.2442ZM5.8335 7.5C4.91266 7.5 4.16683 6.75416 4.16683 5.83333C4.16683 4.91249 4.91266 4.16666 5.8335 4.16666C6.75433 4.16666 7.50016 4.91249 7.50016 5.83333C7.50016 6.75416 6.75433 7.5 5.8335 7.5Z" fill="#A8A8A8"/>
  </symbol>
    <symbol id="truck-model" viewBox="0 0 14 16">
    <path d="M6.96631 0C4.53964 0 2.49298 0.134 2.18764 0.312C1.65431 0.494 1.25298 1.70533 1.25164 3.14267V3.85667H1.10631C1.09175 3.82369 1.07194 3.7933 1.04764 3.76667C1.11039 3.69405 1.14493 3.6013 1.14498 3.50533V3.14267C1.15346 3.05782 1.12844 2.97303 1.07525 2.90639C1.02206 2.83974 0.944921 2.79654 0.86031 2.786H0.28831C0.203066 2.79637 0.125334 2.83989 0.0719336 2.90714C0.0185336 2.97439 -0.00623903 3.05996 0.00297656 3.14533V3.144V3.50667C0.00297656 3.60667 0.0396432 3.69867 0.10031 3.76867L0.0996432 3.768C0.0369002 3.84061 0.00235477 3.93337 0.0023099 4.02933V5.82C0.00142101 5.83022 0.000976562 5.84089 0.000976562 5.852C0.000976562 6.01867 0.125643 6.15667 0.286977 6.17667H0.859643C0.913271 6.17391 0.964975 6.15579 1.00859 6.12446C1.05221 6.09314 1.0859 6.04994 1.10564 6L1.10631 5.998H1.25164V9.21267C1.25164 9.34 1.38831 9.458 1.60898 9.52133V9.93867C1.29364 9.97933 1.07564 10.1213 1.07564 10.284V13.8573C1.05313 14.3002 1.18041 14.7377 1.43698 15.0993L1.43298 15.0933V15.7073C1.43298 15.8693 1.56431 16.0007 1.72631 16.0007H2.92498C3.00277 16.0007 3.07738 15.9698 3.13239 15.9148C3.1874 15.8597 3.21831 15.7851 3.21831 15.7073V15.2867H10.7163V15.7073C10.7163 15.8693 10.8476 16.0007 11.0096 16.0007H12.2083C12.2468 16.0007 12.285 15.9931 12.3206 15.9783C12.3562 15.9636 12.3885 15.942 12.4157 15.9148C12.443 15.8875 12.4646 15.8552 12.4793 15.8196C12.4941 15.784 12.5016 15.7459 12.5016 15.7073V15.094C12.7564 14.7324 12.8822 14.2957 12.859 13.854V13.8587V10.2853C12.859 10.1227 12.6383 9.98067 12.3256 9.94V9.52267C12.5463 9.45933 12.6823 9.34133 12.683 9.214V6.00067H12.8283C12.8683 6.102 12.963 6.17333 13.0743 6.17933H13.6443C13.7296 6.16896 13.8073 6.12545 13.8607 6.0582C13.9141 5.99095 13.9389 5.90538 13.9296 5.82V5.82133V4.03067C13.9298 3.93447 13.8952 3.84145 13.8323 3.76867L13.833 3.76933C13.8957 3.69672 13.9303 3.60397 13.9303 3.508V3.14667C13.9388 3.06182 13.9138 2.97703 13.8606 2.91039C13.8074 2.84374 13.7303 2.80054 13.6456 2.79H13.073C12.9877 2.80037 12.91 2.84389 12.8566 2.91114C12.8032 2.97839 12.7784 3.06396 12.7876 3.14933V3.148V3.51067C12.7876 3.61067 12.8243 3.70267 12.885 3.77267L12.8843 3.772C12.8612 3.79844 12.8417 3.8278 12.8263 3.85933L12.8256 3.86133H12.6803V3.144C12.6803 1.69933 12.275 0.482667 11.7376 0.31C11.411 0.132667 9.37431 0.00133333 6.96631 0.00133333V0ZM2.06764 2.07133H11.8643C12.037 2.07133 12.181 2.194 12.2143 2.35733L12.215 2.35933C12.283 2.69933 12.3216 3.09067 12.3216 3.49133V3.51667V3.51533V6C12.3216 6.19733 12.1616 6.35733 11.9643 6.35733H1.96631C1.87154 6.35733 1.78065 6.31969 1.71364 6.25267C1.64662 6.18566 1.60898 6.09477 1.60898 6V3.492C1.60942 3.09067 1.64698 2.70044 1.72164 2.32133L1.71564 2.35933C1.7317 2.27815 1.77544 2.20505 1.83939 2.15253C1.90335 2.1 1.98355 2.0713 2.06631 2.07133H2.06764ZM2.50164 9.92867H3.26698C3.36231 9.92867 3.43964 10.0033 3.44498 10.0973V10.098L3.57231 12.4193V12.4287C3.57231 12.5273 3.49231 12.6073 3.39364 12.6073H2.50164C2.45437 12.607 2.40912 12.588 2.37569 12.5546C2.34226 12.5212 2.32333 12.4759 2.32298 12.4287V10.1073C2.32298 10.0087 2.40298 9.92867 2.50164 9.92867ZM10.665 9.92867H11.4303C11.529 9.92867 11.609 10.0087 11.609 10.1073V12.4267C11.609 12.5253 11.529 12.6053 11.4303 12.6053H10.5376C10.4904 12.605 10.4451 12.586 10.4117 12.5526C10.3783 12.5192 10.3593 12.4739 10.359 12.4267V12.4167L10.4863 10.096C10.493 10.0027 10.5703 9.92933 10.6643 9.92933L10.665 9.92867ZM4.01964 10.3553H9.91298C9.96231 10.3553 10.0023 10.3953 10.0023 10.4447V10.5513C10.0023 10.6007 9.96231 10.6407 9.91298 10.6407H4.01964C3.99595 10.6407 3.97323 10.6313 3.95647 10.6145C3.93972 10.5977 3.93031 10.575 3.93031 10.5513V10.4447C3.93031 10.3953 3.97031 10.3553 4.01964 10.3553ZM4.05498 10.998H9.87698C9.92631 10.998 9.96631 11.038 9.96631 11.0873V11.194C9.96631 11.2433 9.92631 11.2833 9.87698 11.2833H4.05498C4.03128 11.2833 4.00856 11.2739 3.99181 11.2572C3.97505 11.2404 3.96564 11.2177 3.96564 11.194V11.0873C3.96564 11.038 4.00564 10.998 4.05498 10.998ZM4.09098 11.6407H9.84164C9.89098 11.6407 9.93098 11.6807 9.93098 11.73V11.8367C9.93098 11.886 9.89098 11.926 9.84164 11.926H4.09098C4.06803 11.926 4.04596 11.9171 4.02943 11.9012C4.01289 11.8853 4.00317 11.8636 4.00231 11.8407V11.734C4.00231 11.6847 4.04231 11.6447 4.09164 11.6447L4.09098 11.6407ZM4.12698 12.2833H9.80564C9.85498 12.2833 9.89498 12.3233 9.89498 12.3727V12.4793C9.89498 12.5287 9.85498 12.5687 9.80564 12.5687H4.12698C4.10328 12.5687 4.08056 12.5593 4.06381 12.5425C4.04705 12.5257 4.03764 12.503 4.03764 12.4793V12.3727C4.03764 12.3233 4.07764 12.2833 4.12698 12.2833Z" fill="#4964D8"/>
  </symbol>
  </symbol>
  <symbol id="arrow-right" viewBox="0 0 14 26">
    <path d="M0.872773 -5.73809e-07C0.651368 -5.83487e-07 0.424788 0.0872736 0.254872 0.256688C-0.0849581 0.595517 -0.0849581 1.14996 0.254872 1.48879L11.8864 13.086L0.424786 24.5138C0.084956 24.8526 0.084956 25.407 0.424786 25.7459C0.764617 26.0847 1.32071 26.0847 1.66054 25.7459L13.7451 13.702C14.085 13.3632 14.085 12.8088 13.7451 12.4699L1.49577 0.256688C1.32071 0.0821399 1.09933 -5.63906e-07 0.872773 -5.73809e-07Z" fill="#4964D8" fill-opacity="0.5"/>
  </symbol>
</svg>





